# xmcd
#
# Track frame offsets:
#	150
#	15092
#	26482
#	38212
#	54474
#	69333
#	84406
#	105376
#	117501
#	132951
#	149100
#	161481
#	175106
#	190686
#	202849
#
# Disc length: 2830 seconds
#
# Revision: 1
# Processed by: cddbd v1.5.2PL0 Copyright (c) Steve Scherf et al.
# Submitted via: audiograbber 1.83.01
#
DISCID=bd0b0c0f
DTITLE=Tommy Edwards - Old Songs/New Songs
DYEAR=2006
DGENRE=Bluegrass
TTITLE0=On and On
TTITLE1=Blue Ridge Cabin Home
TTITLE2=THe Carolina Waltz
TTITLE3=Train's A'Coming
TTITLE4=Have You Seen Sarah
TTITLE5=Journey's End
TTITLE6=Shoulder, Heart and Mind
TTITLE7=Your'e Gone, I'm All Alone
TTITLE8=Theh Enron Song
TTITLE9=ONe More Glass of Wine
TTITLE10=Travelin' The Highway of Regret
TTITLE11=Lonesome Freight Train Whistle Blues
TTITLE12=When You Are Lonely
TTITLE13=My Tears Spolied My Aim
TTITLE14=Hamilton County Breakdown
EXTD=
EXTT0=
EXTT1=
EXTT2=
EXTT3=
EXTT4=
EXTT5=
EXTT6=
EXTT7=
EXTT8=
EXTT9=
EXTT10=
EXTT11=
EXTT12=
EXTT13=
EXTT14=
PLAYORDER=
